<svg width="138" height="48" viewBox="0 0 138 48" fill="none" xmlns="http://www.w3.org/2000/svg">
<g clip-path="url(#clip0_858_17814)">
<path d="M29.4114 7.72594V5.91772C29.0583 6.02732 28.336 6.26293 28.2708 6.32868C28.2056 6.39444 27.7547 6.57526 27.5375 6.65745L27.4561 7.31498L29.4114 7.97252V7.72594Z" fill="#E76F00"/>
<path d="M2.28125 7.72594V5.91772C2.6343 6.02732 3.33441 6.29928 3.42186 6.32868C3.66627 6.41088 3.93785 6.57526 4.1551 6.65745L4.23658 7.31498L2.28125 7.97252V7.72594Z" fill="#E76F00"/>
<path d="M31.7741 8.7124H0V40.7672H31.7741V8.7124Z" fill="#FF9900"/>
<path d="M42.3914 38.5183C40.6778 38.5183 39.1529 38.0988 37.8173 37.2598C36.4816 36.4208 35.4357 35.2767 34.6796 33.8275C33.9236 32.3528 33.5455 30.6876 33.5455 28.8315C33.5455 26.9502 33.9236 25.2721 34.6796 23.7974C35.4357 22.3228 36.4816 21.1786 37.8173 20.3651C39.1529 19.5261 40.6778 19.1066 42.3914 19.1066C43.5508 19.1066 44.6093 19.3228 45.5669 19.7549C46.5245 20.1618 47.3058 20.7465 47.9107 21.5092C48.5408 22.272 48.9188 23.1365 49.0448 24.1025V33.4842C48.9188 34.4758 48.5408 35.3529 47.9107 36.1157C47.3058 36.8529 46.5245 37.4378 45.5669 37.87C44.6093 38.3022 43.5508 38.5183 42.3914 38.5183ZM43.7901 32.6071C44.8739 32.6071 45.7434 32.2512 46.3986 31.5392C47.079 30.8273 47.4192 29.912 47.4192 28.7934C47.4192 28.0561 47.268 27.4078 46.9656 26.8484C46.6632 26.289 46.2348 25.8442 45.6803 25.5136C45.151 25.183 44.5337 25.0178 43.8279 25.0178C43.1222 25.0178 42.4923 25.183 41.9378 25.5136C41.4086 25.8442 40.9802 26.3018 40.6525 26.8865C40.3501 27.4459 40.1989 28.0814 40.1989 28.7934C40.1989 29.5306 40.3501 30.1918 40.6525 30.7765C40.9549 31.3359 41.3833 31.7807 41.9378 32.1113C42.4923 32.4419 43.1097 32.6071 43.7901 32.6071ZM47.1546 38.1369V33.141L48.0997 28.5646L47.1546 24.0644V19.488H53.6189V38.1369H47.1546ZM57.8354 38.1369V19.488H64.4131V38.1369H57.8354ZM64.4131 27.9925L61.4645 25.4755C62.1953 23.3653 63.1656 21.7762 64.3753 20.7083C65.585 19.6405 67.1602 19.1066 69.1007 19.1066C69.9827 19.1066 70.7388 19.221 71.3689 19.4498C72.0241 19.6786 72.5786 20.0345 73.0322 20.5177L69.2141 25.6662C69.0126 25.4373 68.7227 25.2593 68.3446 25.1322C67.9919 24.9797 67.5886 24.9034 67.135 24.9034C66.278 24.9034 65.6103 25.1704 65.1314 25.7043C64.6525 26.2127 64.4131 26.9755 64.4131 27.9925ZM77.4697 38.1369V11.7843H84.0474V38.1369H77.4697ZM73.3869 25.0178V19.488H88.1301V25.0178H73.3869ZM90.7822 38.1369V19.488H97.3977V38.1369H90.7822ZM94.071 17.3142C93.0882 17.3142 92.269 16.9836 91.6138 16.3226C90.9587 15.6361 90.631 14.7844 90.631 13.7674C90.631 12.7759 90.9587 11.9368 91.6138 11.2504C92.269 10.5639 93.0882 10.2207 94.071 10.2207C95.1043 10.2207 95.9359 10.5639 96.566 11.2504C97.2212 11.9368 97.5489 12.7759 97.5489 13.7674C97.5489 14.7844 97.2212 15.6361 96.566 16.3226C95.9359 16.9836 95.1043 17.3142 94.071 17.3142ZM103.877 38.1369V18.3057C103.877 16.7294 104.217 15.3183 104.898 14.0725C105.578 12.8013 106.548 11.7843 107.808 11.0216C109.094 10.2588 110.631 9.87744 112.42 9.87744C113.756 9.87744 114.928 10.1063 115.936 10.5639C116.944 10.9961 117.813 11.5809 118.544 12.3182L114.424 16.4751C114.222 16.2463 113.97 16.0811 113.668 15.9794C113.39 15.8522 113.063 15.7887 112.685 15.7887C112.004 15.7887 111.463 15.9921 111.059 16.3989C110.656 16.8057 110.455 17.3523 110.455 18.0388V38.1369H103.877ZM99.9453 25.0178V19.488H115.671V25.0178H99.9453ZM124.229 38.1751L116.82 19.488H123.851L128.388 34.8572H125.628L130.202 19.488H137.234L129.635 38.1369L124.229 38.1751ZM119.844 46.0313L125.326 33.8656L129.635 38.1369L126.46 46.0313H119.844Z" fill="#2242A3"/>
<path d="M20.8629 37.9727L10.7543 23.9039L13.3614 21.2055H21.0198L17.6191 25.0066L17.5813 22.611L29.0855 37.9727H20.8629ZM4.64392 37.9727V10.8494H11.3955V37.9727H4.64392Z" fill="white"/>
<path d="M94.1001 17.0958C96.0349 17.0958 97.6034 15.5135 97.6034 13.5616C97.6034 11.6097 96.0349 10.0273 94.1001 10.0273C92.1653 10.0273 90.5968 11.6097 90.5968 13.5616C90.5968 15.5135 92.1653 17.0958 94.1001 17.0958Z" fill="#FF9900"/>
<path d="M7.75312 15.4788C8.79536 15.4788 9.64025 14.6264 9.64025 13.575C9.64025 12.5235 8.79536 11.6711 7.75312 11.6711C6.71086 11.6711 5.86597 12.5235 5.86597 13.575C5.86597 14.6264 6.71086 15.4788 7.75312 15.4788Z" fill="#FFBC58"/>
<path d="M24.1838 15.4788C25.2262 15.4788 26.071 14.6264 26.071 13.575C26.071 12.5235 25.2262 11.6711 24.1838 11.6711C23.1416 11.6711 22.2968 12.5235 22.2968 13.575C22.2968 14.6264 23.1416 15.4788 24.1838 15.4788Z" fill="#FFBC58"/>
<g filter="url(#filter0_d_858_17814)">
<path d="M15.9684 22.815C10.913 22.8079 6.81637 18.6751 6.80945 13.5751H8.6966C8.69521 17.6267 11.9499 20.9122 15.966 20.9135C19.9821 20.9149 23.239 17.6315 23.2401 13.5799C23.2401 13.5782 23.2401 13.5766 23.2401 13.575H25.1274C25.1204 18.6751 21.0239 22.8079 15.9684 22.815Z" fill="url(#paint0_linear_858_17814)"/>
</g>
<path d="M3.99213 6.98627L0 8.7123H31.7741C30.6335 8.05477 28.4826 7.49586 28.0264 7.23285C27.456 6.90408 27.9449 6.57532 29.167 6.16436C30.1446 5.83559 28.2708 5.26025 27.2116 5.01367H4.48096C3.44898 5.28765 1.71091 5.83559 2.44416 6.08217C3.94324 6.41093 4.31801 6.82189 3.99213 6.98627Z" fill="url(#paint1_radial_858_17814)"/>
<mask id="mask0_858_17814" style="mask-type:alpha" maskUnits="userSpaceOnUse" x="0" y="5" width="32" height="4">
<path d="M3.99213 6.98627L0 8.7123H31.7741C30.6335 8.05477 28.4826 7.49586 28.0264 7.23285C27.456 6.90408 27.9449 6.57532 29.167 6.16436C30.1446 5.83559 28.2708 5.26025 27.2116 5.01367H4.48096C3.44898 5.28765 1.71091 5.83559 2.44416 6.08217C3.94324 6.41093 4.31801 6.82189 3.99213 6.98627Z" fill="url(#paint2_radial_858_17814)"/>
</mask>
<g mask="url(#mask0_858_17814)">
<g filter="url(#filter1_f_858_17814)">
</g>
</g>
</g>
<defs>
<filter id="filter0_d_858_17814" x="6.80945" y="13.575" width="18.3179" height="12.24" filterUnits="userSpaceOnUse" color-interpolation-filters="sRGB">
<feFlood flood-opacity="0" result="BackgroundImageFix"/>
<feColorMatrix in="SourceAlpha" type="matrix" values="0 0 0 0 0 0 0 0 0 0 0 0 0 0 0 0 0 0 127 0" result="hardAlpha"/>
<feOffset dy="3"/>
<feComposite in2="hardAlpha" operator="out"/>
<feColorMatrix type="matrix" values="0 0 0 0 0 0 0 0 0 0 0 0 0 0 0 0 0 0 0.09 0"/>
<feBlend mode="normal" in2="BackgroundImageFix" result="effect1_dropShadow_858_17814"/>
<feBlend mode="normal" in="SourceGraphic" in2="effect1_dropShadow_858_17814" result="shape"/>
</filter>
<filter id="filter1_f_858_17814" x="-19.2457" y="-21.2876" width="70.4285" height="62.6301" filterUnits="userSpaceOnUse" color-interpolation-filters="sRGB">
<feFlood flood-opacity="0" result="BackgroundImageFix"/>
<feBlend mode="normal" in="SourceGraphic" in2="BackgroundImageFix" result="shape"/>
<feGaussianBlur stdDeviation="15" result="effect1_foregroundBlur_858_17814"/>
</filter>
<linearGradient id="paint0_linear_858_17814" x1="24.4678" y1="15.3429" x2="8.50106" y2="28.5858" gradientUnits="userSpaceOnUse">
<stop stop-color="#DAE5F7"/>
<stop offset="0.968237" stop-color="#A7BCDC"/>
</linearGradient>
<radialGradient id="paint1_radial_858_17814" cx="0" cy="0" r="1" gradientUnits="userSpaceOnUse" gradientTransform="translate(15.887 6.86299) rotate(90) scale(15.637 15.5001)">
<stop stop-color="#FFCF87"/>
<stop offset="1" stop-color="#FF9900"/>
</radialGradient>
<radialGradient id="paint2_radial_858_17814" cx="0" cy="0" r="1" gradientUnits="userSpaceOnUse" gradientTransform="translate(15.887 6.86299) rotate(90) scale(8.34247 8.2694)">
<stop stop-color="#FFEFC5"/>
<stop offset="1" stop-color="#FFBA0A"/>
</radialGradient>
<clipPath id="clip0_858_17814">
<rect width="137.362" height="48" fill="white"/>
</clipPath>
</defs>
</svg>
