<svg width="117" height="40" viewBox="0 0 117 40" fill="none" xmlns="http://www.w3.org/2000/svg">
<mask id="mask0_62_119" style="mask-type:luminance" maskUnits="userSpaceOnUse" x="0" y="0" width="117" height="40">
<path d="M116.459 0H0V40H116.459V0Z" fill="white"/>
</mask>
<g mask="url(#mask0_62_119)">
<path d="M35.9402 32.0986C34.4873 32.0986 33.1945 31.749 32.0621 31.0498C30.9297 30.3507 30.0429 29.3973 29.4019 28.1896C28.7609 26.9607 28.4404 25.573 28.4404 24.0263C28.4404 22.4585 28.7609 21.0601 29.4019 19.8312C30.0429 18.6023 30.9297 17.6488 32.0621 16.9709C33.1945 16.2718 34.4873 15.9222 35.9402 15.9222C36.9231 15.9222 37.8205 16.1023 38.6324 16.4624C39.4444 16.8015 40.1068 17.2888 40.6195 17.9243C41.1538 18.56 41.4743 19.2804 41.5811 20.0854V27.9035C41.4743 28.7298 41.1538 29.4608 40.6195 30.0964C40.1068 30.7108 39.4444 31.1982 38.6324 31.5583C37.8205 31.9185 36.9231 32.0986 35.9402 32.0986ZM37.1261 27.1726C38.0449 27.1726 38.782 26.876 39.3375 26.2827C39.9145 25.6894 40.2029 24.9267 40.2029 23.9945C40.2029 23.3801 40.0747 22.8398 39.8183 22.3737C39.5619 21.9075 39.1987 21.5368 38.7286 21.2613C38.2799 20.9858 37.7564 20.8482 37.1581 20.8482C36.5598 20.8482 36.0258 20.9858 35.5556 21.2613C35.1069 21.5368 34.7437 21.9182 34.4659 22.4054C34.2095 22.8716 34.0813 23.4012 34.0813 23.9945C34.0813 24.6088 34.2095 25.1598 34.4659 25.6471C34.7223 26.1133 35.0855 26.4839 35.5556 26.7594C36.0258 27.0349 36.5491 27.1726 37.1261 27.1726ZM39.9786 31.7808V27.6175L40.7798 23.8038L39.9786 20.0537V16.24H45.4592V31.7808H39.9786ZM49.034 31.7808V16.24H54.6108V31.7808H49.034ZM54.6108 23.3271L52.1109 21.2296C52.7305 19.4711 53.5531 18.1468 54.5787 17.2569C55.6043 16.3671 56.9398 15.9222 58.5851 15.9222C59.3328 15.9222 59.9738 16.0175 60.508 16.2082C61.0635 16.3988 61.5336 16.6954 61.9183 17.0981L58.6812 21.3885C58.5103 21.1978 58.2645 21.0494 57.944 20.9435C57.6449 20.8164 57.303 20.7528 56.9184 20.7528C56.1919 20.7528 55.6257 20.9753 55.2198 21.4203C54.8138 21.8439 54.6108 22.4796 54.6108 23.3271ZM65.6804 31.7808V9.82025H71.2573V31.7808H65.6804ZM62.219 20.8482V16.24H74.7187V20.8482H62.219ZM76.9671 31.7808V16.24H82.576V31.7808H76.9671ZM79.7555 14.4285C78.9222 14.4285 78.2277 14.153 77.6722 13.6022C77.1168 13.0301 76.8389 12.3203 76.8389 11.4728C76.8389 10.6466 77.1168 9.94733 77.6722 9.37533C78.2277 8.80325 78.9222 8.51725 79.7555 8.51725C80.6315 8.51725 81.3366 8.80325 81.8709 9.37533C82.4263 9.94733 82.7042 10.6466 82.7042 11.4728C82.7042 12.3203 82.4263 13.0301 81.8709 13.6022C81.3366 14.153 80.6315 14.4285 79.7555 14.4285ZM88.0692 31.7808V15.2548C88.0692 13.9412 88.3575 12.7653 88.9349 11.7271C89.5114 10.6678 90.3338 9.82025 91.402 9.18467C92.4923 8.549 93.7954 8.2312 95.3122 8.2312C96.4449 8.2312 97.4385 8.42192 98.2932 8.80325C99.1478 9.16342 99.8854 9.65075 100.504 10.2652L97.0112 13.7293C96.84 13.5386 96.6263 13.4009 96.3703 13.3162C96.1354 13.2102 95.8574 13.1573 95.5369 13.1573C94.9604 13.1573 94.5008 13.3268 94.1583 13.6658C93.8166 14.0048 93.6462 14.4603 93.6462 15.0323V31.7808H88.0692ZM84.7359 20.8482V16.24H98.0685V20.8482H84.7359ZM105.324 31.8126L99.0426 16.24H105.004L108.85 29.0477H106.51L110.388 16.24H116.35L109.908 31.7808L105.324 31.8126ZM101.606 38.3594L106.254 28.2213L109.908 31.7808L107.216 38.3594H101.606Z" fill="white"/>
<path d="M79.7807 14.2465C81.4211 14.2465 82.7509 12.9279 82.7509 11.3013C82.7509 9.67474 81.4211 8.35607 79.7807 8.35607C78.1404 8.35607 76.8105 9.67474 76.8105 11.3013C76.8105 12.9279 78.1404 14.2465 79.7807 14.2465Z" fill="#FFA800"/>
<path d="M24.9361 6.43826V4.93141C24.6367 5.02274 24.0243 5.21908 23.969 5.27387C23.9138 5.32867 23.5315 5.47936 23.3473 5.54785L23.2783 6.09579L24.9361 6.64374V6.43826Z" fill="#E76F00"/>
<path d="M1.93359 6.43826V4.93141C2.23292 5.02274 2.82648 5.24937 2.90063 5.27387C3.10785 5.34237 3.3381 5.47936 3.52229 5.54785L3.59137 6.09579L1.93359 6.64374V6.43826Z" fill="#E76F00"/>
<path d="M26.9389 7.26037H0V33.9727H26.9389V7.26037Z" fill="#FFA800"/>
<path d="M17.6884 31.6438L9.11804 19.9198L11.3284 17.6711H17.8214L14.9382 20.8387L14.9061 18.8424L24.6597 31.6438H17.6884ZM3.9375 31.6438V9.04106H9.66167V31.6438H3.9375Z" fill="white"/>
<path d="M6.57361 12.8991C7.45725 12.8991 8.17357 12.1888 8.17357 11.3126C8.17357 10.4364 7.45725 9.72605 6.57361 9.72605C5.68995 9.72605 4.97363 10.4364 4.97363 11.3126C4.97363 12.1888 5.68995 12.8991 6.57361 12.8991Z" fill="#FF9900"/>
<path d="M20.5032 12.8991C21.3869 12.8991 22.1032 12.1888 22.1032 11.3126C22.1032 10.4364 21.3869 9.72605 20.5032 9.72605C19.6196 9.72605 18.9033 10.4364 18.9033 11.3126C18.9033 12.1888 19.6196 12.8991 20.5032 12.8991Z" fill="#FF9900"/>
<g filter="url(#filter0_d_62_119)">
<path d="M13.5387 19.0125C9.25257 19.0066 5.7793 15.5626 5.77344 11.3126H7.37341C7.37224 14.689 10.1317 17.4269 13.5366 17.428C16.9415 17.4291 19.7029 14.693 19.7038 11.3166V11.3125H21.3038C21.2979 15.5626 17.8249 19.0066 13.5387 19.0125Z" fill="url(#paint0_linear_62_119)"/>
</g>
<path d="M3.38463 5.82189L0 7.26025H26.9389C25.9719 6.71231 24.1483 6.24655 23.7615 6.02738C23.2779 5.7534 23.6924 5.47943 24.7285 5.13697C25.5574 4.86299 23.9687 4.38354 23.0707 4.17806H3.79907C2.92414 4.40638 1.45055 4.86299 2.07222 5.06848C3.34318 5.34244 3.66092 5.68491 3.38463 5.82189Z" fill="url(#paint1_radial_62_119)"/>
</g>
<defs>
<filter id="filter0_d_62_119" x="5.77344" y="11.3125" width="15.5303" height="10.7" filterUnits="userSpaceOnUse" color-interpolation-filters="sRGB">
<feFlood flood-opacity="0" result="BackgroundImageFix"/>
<feColorMatrix in="SourceAlpha" type="matrix" values="0 0 0 0 0 0 0 0 0 0 0 0 0 0 0 0 0 0 127 0" result="hardAlpha"/>
<feOffset dy="3"/>
<feComposite in2="hardAlpha" operator="out"/>
<feColorMatrix type="matrix" values="0 0 0 0 0 0 0 0 0 0 0 0 0 0 0 0 0 0 0.09 0"/>
<feBlend mode="normal" in2="BackgroundImageFix" result="effect1_dropShadow_62_119"/>
<feBlend mode="normal" in="SourceGraphic" in2="effect1_dropShadow_62_119" result="shape"/>
</filter>
<linearGradient id="paint0_linear_62_119" x1="20.7446" y1="12.7858" x2="7.39847" y2="24.0477" gradientUnits="userSpaceOnUse">
<stop stop-color="#DAE5F7"/>
<stop offset="0.968237" stop-color="#A7BCDC"/>
</linearGradient>
<radialGradient id="paint1_radial_62_119" cx="0" cy="0" r="1" gradientUnits="userSpaceOnUse" gradientTransform="translate(13.4694 5.71916) rotate(90) scale(13.0308 13.1414)">
<stop stop-color="#FFDB95"/>
<stop offset="1" stop-color="#FFA800"/>
</radialGradient>
</defs>
</svg>
