<svg xmlns="http://www.w3.org/2000/svg" width="32" height="36" fill="none" viewBox="0 0 32 36"><path fill="#e76f00" d="M29.411 2.712V.904c-.353.11-1.075.345-1.14.411s-.516.247-.733.329l-.082.657 1.955.658zm-27.13 0V.904c.353.11 1.053.382 1.14.411.245.082.517.247.734.329l.082.657-1.956.658z"/><path fill="#ffa800" d="M31.774 3.699H0v32.055h31.774z"/><path fill="#fff" d="M20.863 32.959 10.754 18.89l2.608-2.698h7.658l-3.4 3.8-.039-2.395L29.087 32.96zm-16.219 0V5.836h6.752v27.123z"/><path fill="#e76f00" d="M7.753 10.465A1.896 1.896 0 0 0 9.64 8.561a1.896 1.896 0 0 0-1.887-1.904 1.896 1.896 0 0 0-1.887 1.904c0 1.052.845 1.904 1.887 1.904m16.431 0a1.895 1.895 0 0 0 1.887-1.904 1.895 1.895 0 0 0-1.887-1.904 1.895 1.895 0 0 0-1.887 1.904c0 1.052.845 1.904 1.887 1.904"/><g filter="url(#a)"><path fill="url(#b)" d="M15.969 17.801c-5.056-.007-9.152-4.14-9.16-9.24h1.888c-.002 4.052 3.253 7.338 7.27 7.339 4.015.001 7.272-3.282 7.273-7.334v-.005h1.888c-.008 5.1-4.104 9.233-9.16 9.24"/></g><path fill="url(#c)" d="M3.992 1.973 0 3.699h31.774c-1.14-.658-3.291-1.217-3.748-1.48-.57-.329-.081-.657 1.141-1.068.978-.33-.896-.904-1.955-1.151H4.48C3.448.274 1.71.822 2.443 1.068c1.5.33 1.874.74 1.548.905"/><mask id="f" width="32" height="4" x="0" y="0" maskUnits="userSpaceOnUse" style="mask-type:alpha"><path fill="url(#d)" d="M3.992 1.973 0 3.699h31.774c-1.14-.658-3.291-1.217-3.748-1.48-.57-.329-.081-.657 1.141-1.068.978-.33-.896-.904-1.955-1.151H4.48C3.448.274 1.71.822 2.443 1.068c1.5.33 1.874.74 1.548.905"/></mask><g filter="url(#e)" mask="url(#f)"/><defs><radialGradient id="c" cx="0" cy="0" r="1" gradientTransform="matrix(0 15.637 -15.5001 0 15.887 1.85)" gradientUnits="userSpaceOnUse"><stop stop-color="#ffcb67"/><stop offset="1" stop-color="#ffa800"/></radialGradient><radialGradient id="d" cx="0" cy="0" r="1" gradientTransform="matrix(0 8.34247 -8.2694 0 15.887 1.85)" gradientUnits="userSpaceOnUse"><stop stop-color="#ffa800"/><stop offset="1" stop-color="#ffa800"/></radialGradient><filter id="a" width="18.318" height="12.24" x="6.81" y="8.561" color-interpolation-filters="sRGB" filterUnits="userSpaceOnUse"><feFlood flood-opacity="0" result="BackgroundImageFix"/><feColorMatrix in="SourceAlpha" result="hardAlpha" values="0 0 0 0 0 0 0 0 0 0 0 0 0 0 0 0 0 0 127 0"/><feOffset dy="3"/><feComposite in2="hardAlpha" operator="out"/><feColorMatrix values="0 0 0 0 0 0 0 0 0 0 0 0 0 0 0 0 0 0 0.09 0"/><feBlend in2="BackgroundImageFix" result="effect1_dropShadow_892_7235"/><feBlend in="SourceGraphic" in2="effect1_dropShadow_892_7235" result="shape"/></filter><filter id="e" width="70.428" height="62.63" x="-19.246" y="-26.301" color-interpolation-filters="sRGB" filterUnits="userSpaceOnUse"><feFlood flood-opacity="0" result="BackgroundImageFix"/><feBlend in="SourceGraphic" in2="BackgroundImageFix" result="shape"/><feGaussianBlur result="effect1_foregroundBlur_892_7235" stdDeviation="15"/></filter><linearGradient id="b" x1="24.468" x2="8.501" y1="10.329" y2="23.572" gradientUnits="userSpaceOnUse"><stop stop-color="#dae5f7"/><stop offset=".968" stop-color="#a7bcdc"/></linearGradient></defs></svg>