<svg width="28" height="28" viewBox="0 0 28 28" fill="none" xmlns="http://www.w3.org/2000/svg">
<path d="M21.046 15.8083C20.556 16.2867 20.276 16.975 20.346 17.71C20.451 18.97 21.606 19.8917 22.866 19.8917H25.0827V21.28C25.0827 23.695 23.111 25.6667 20.696 25.6667H7.30268C4.88768 25.6667 2.91602 23.695 2.91602 21.28V13.4284C2.91602 11.0134 4.88768 9.04169 7.30268 9.04169H20.696C23.111 9.04169 25.0827 11.0134 25.0827 13.4284V15.1084H22.726C22.0727 15.1084 21.4777 15.365 21.046 15.8083Z" stroke="white" stroke-width="1.5" stroke-linecap="round" stroke-linejoin="round"/>
<path d="M2.91602 14.4783V9.14673C2.91602 7.75839 3.76768 6.52168 5.06268 6.03168L14.326 2.53168C15.7727 1.98334 17.3244 3.05671 17.3244 4.60838V9.04169" stroke="white" stroke-width="1.5" stroke-linecap="round" stroke-linejoin="round"/>
<path d="M26.318 16.2985V18.7019C26.318 19.3436 25.8046 19.8686 25.1513 19.8919H22.8646C21.6046 19.8919 20.4496 18.9702 20.3446 17.7102C20.2746 16.9752 20.5546 16.2869 21.0446 15.8086C21.4763 15.3652 22.0713 15.1086 22.7246 15.1086H25.1513C25.8046 15.1319 26.318 15.6569 26.318 16.2985Z" stroke="white" stroke-width="1.5" stroke-linecap="round" stroke-linejoin="round"/>
<path d="M8.16602 14H16.3327" stroke="white" stroke-width="1.5" stroke-linecap="round" stroke-linejoin="round"/>
</svg>
