<svg width="40" height="40" viewBox="0 0 40 40" fill="none" xmlns="http://www.w3.org/2000/svg">
<path d="M19.9993 23.3333H21.6659C23.4993 23.3333 24.9993 21.8333 24.9993 20V3.33334H9.99927C7.49927 3.33334 5.31595 4.71666 4.18262 6.74999" stroke="#202C3B" stroke-width="1.5" stroke-linecap="round" stroke-linejoin="round"/>
<path d="M3.33301 28.3333C3.33301 31.1 5.56634 33.3333 8.33301 33.3333H9.99967C9.99967 31.5 11.4997 30 13.333 30C15.1663 30 16.6663 31.5 16.6663 33.3333H23.333C23.333 31.5 24.833 30 26.6663 30C28.4997 30 29.9997 31.5 29.9997 33.3333H31.6663C34.433 33.3333 36.6663 31.1 36.6663 28.3333V23.3333H31.6663C30.7497 23.3333 29.9997 22.5833 29.9997 21.6667V16.6667C29.9997 15.75 30.7497 15 31.6663 15H33.8163L30.9664 10.0167C30.3664 8.98336 29.2664 8.33334 28.0664 8.33334H24.9997V20C24.9997 21.8333 23.4997 23.3333 21.6663 23.3333H19.9997" stroke="#202C3B" stroke-width="1.5" stroke-linecap="round" stroke-linejoin="round"/>
<path d="M13.3333 36.6667C15.1743 36.6667 16.6667 35.1743 16.6667 33.3333C16.6667 31.4924 15.1743 30 13.3333 30C11.4924 30 10 31.4924 10 33.3333C10 35.1743 11.4924 36.6667 13.3333 36.6667Z" stroke="#202C3B" stroke-width="1.5" stroke-linecap="round" stroke-linejoin="round"/>
<path d="M26.6663 36.6667C28.5073 36.6667 29.9997 35.1743 29.9997 33.3333C29.9997 31.4924 28.5073 30 26.6663 30C24.8254 30 23.333 31.4924 23.333 33.3333C23.333 35.1743 24.8254 36.6667 26.6663 36.6667Z" stroke="#202C3B" stroke-width="1.5" stroke-linecap="round" stroke-linejoin="round"/>
<path d="M36.6667 20V23.3333H31.6667C30.75 23.3333 30 22.5833 30 21.6667V16.6667C30 15.75 30.75 15 31.6667 15H33.8166L36.6667 20Z" stroke="#202C3B" stroke-width="1.5" stroke-linecap="round" stroke-linejoin="round"/>
<path d="M3.33301 13.3333H13.333" stroke="#202C3B" stroke-width="1.5" stroke-linecap="round" stroke-linejoin="round"/>
<path d="M3.33301 18.3333H9.99967" stroke="#202C3B" stroke-width="1.5" stroke-linecap="round" stroke-linejoin="round"/>
<path d="M3.33301 23.3333H6.66634" stroke="#202C3B" stroke-width="1.5" stroke-linecap="round" stroke-linejoin="round"/>
</svg>
